<?xml version="1.0" encoding="UTF-8" standalone="no"?>
<!DOCTYPE svg PUBLIC "-//W3C//DTD SVG 1.1//EN" "http://www.w3.org/Graphics/SVG/1.1/DTD/svg11.dtd">
<svg version="1.1" xmlns="http://www.w3.org/2000/svg" xmlns:xlink="http://www.w3.org/1999/xlink" preserveAspectRatio="xMidYMid meet" viewBox="0 0 640 640" width="640" height="640"><defs><path d="M293.73 131.33L297.94 131.42L302.01 131.53L305.95 131.67L309.75 131.83L313.42 132.01L316.96 132.21L320.38 132.43L323.67 132.67L326.84 132.92L329.89 133.19L332.82 133.47L335.63 133.76L338.33 134.06L340.91 134.37L343.39 134.69L345.76 135.02L348.02 135.34L350.18 135.68L352.23 136.01L354.19 136.35L356.05 136.68L357.81 137.01L359.48 137.34L361.06 137.66L362.55 137.98L363.95 138.29L365.27 138.59L366.51 138.88L367.66 139.16L368.74 139.42L369.74 139.67L370.66 139.91L371.51 140.12L372.29 140.32L373.01 140.5L373.66 140.65L374.24 140.79L374.76 140.89L375.23 140.98L380.01 164.48L380.22 165.57L380.42 166.69L380.6 167.82L380.77 168.98L380.92 170.16L381.06 171.35L381.19 172.57L381.3 173.81L381.4 175.06L381.49 176.34L381.57 177.63L381.63 178.95L381.68 180.28L381.73 181.63L381.76 183L381.78 184.39L381.8 185.79L381.8 187.21L381.8 188.65L381.78 190.11L381.76 191.58L381.73 193.07L381.7 194.58L381.65 196.1L381.6 197.64L381.54 199.19L381.48 200.76L381.41 202.34L381.34 203.94L381.26 205.55L381.18 207.18L381.09 208.82L381 210.47L380.91 212.14L380.81 213.82L380.71 215.52L380.61 217.23L380.5 218.95L380.4 220.68L380.29 222.43L380.2 223.92L380.11 225.42L380.02 226.92L379.93 228.42L379.84 229.92L379.75 231.42L379.67 232.92L379.58 234.42L379.5 235.92L379.42 237.42L379.34 238.92L379.26 240.42L379.19 241.91L379.12 243.4L379.05 244.89L378.99 246.37L378.93 247.86L378.88 249.33L378.83 250.8L378.78 252.27L378.74 253.73L378.7 255.19L378.67 256.64L378.65 258.08L378.63 259.52L378.62 260.94L378.61 262.37L378.61 263.78L378.62 265.18L378.64 266.58L378.66 267.96L378.69 269.34L378.73 270.7L378.77 272.06L378.83 273.4L378.89 274.73L378.96 276.05L379.05 277.36L379.14 278.65L379.24 279.94L379.34 281.14L379.46 282.3L379.58 283.42L379.7 284.51L379.83 285.57L379.97 286.59L380.11 287.58L380.26 288.53L380.41 289.45L380.57 290.34L380.73 291.2L380.89 292.03L381.06 292.82L381.23 293.59L381.41 294.32L381.59 295.03L381.77 295.71L381.95 296.36L382.13 296.99L382.31 297.58L382.5 298.16L382.68 298.7L382.87 299.22L383.06 299.72L383.24 300.19L383.43 300.64L383.61 301.07L383.8 301.47L383.98 301.86L384.16 302.22L384.34 302.56L384.51 302.88L384.68 303.18L384.85 303.47L385.02 303.73L385.18 303.98L385.34 304.21L385.49 304.42L385.64 304.62L385.79 304.8L386.69 305.08L387.14 304.87L387.64 304.62L388.17 304.32L388.75 303.97L389.36 303.57L390.01 303.12L390.7 302.62L391.43 302.06L392.2 301.44L393.01 300.77L393.86 300.03L394.74 299.23L395.66 298.36L396.62 297.43L397.61 296.43L398.65 295.36L399.72 294.22L400.83 293.01L401.97 291.72L403.15 290.35L404.37 288.9L405.62 287.38L406.91 285.77L408.23 284.08L409.59 282.3L410.98 280.43L412.41 278.47L413.88 276.42L415.38 274.28L416.91 272.05L418.48 269.71L420.08 267.28L421.72 264.75L423.39 262.11L425.09 259.38L426.83 256.53L428.6 253.58L430.4 250.52L432.24 247.35L434.11 244.07L436.66 239.51L439.11 235.04L441.47 230.68L443.73 226.41L445.9 222.24L447.98 218.16L449.97 214.19L451.88 210.32L453.7 206.55L455.44 202.89L457.09 199.33L458.67 195.87L460.16 192.52L461.59 189.27L462.93 186.14L464.21 183.11L465.41 180.19L466.54 177.38L467.61 174.67L468.61 172.09L469.55 169.61L470.42 167.25L471.23 165L471.99 162.86L472.69 160.85L473.33 158.94L473.92 157.16L474.46 155.5L474.95 153.95L475.39 152.52L475.78 151.22L476.13 150.04L476.44 148.98L476.7 148.04L476.93 147.23L477.12 146.54L477.27 145.98L477.39 145.55L477.47 145.24L477.53 145.07L634.92 145L637.97 160.05L638.33 162.19L638.57 164.37L638.69 166.59L638.69 168.86L638.57 171.17L638.34 173.53L637.99 175.94L637.53 178.39L636.96 180.89L636.28 183.44L635.49 186.04L634.6 188.69L633.6 191.39L632.5 194.13L631.3 196.93L630 199.78L628.6 202.69L627.11 205.64L625.52 208.65L623.84 211.72L622.07 214.84L620.21 218.01L618.27 221.24L616.24 224.52L614.12 227.87L611.92 231.27L609.65 234.73L607.29 238.24L604.86 241.82L602.35 245.45L599.77 249.15L597.12 252.91L594.39 256.73L591.6 260.61L588.74 264.55L585.82 268.56L582.83 272.63L579.78 276.76L576.67 280.96L573.5 285.23L572.51 286.57L571.51 287.91L570.52 289.24L569.54 290.56L568.56 291.89L567.58 293.2L566.61 294.51L565.65 295.81L564.7 297.11L563.75 298.39L562.81 299.67L561.88 300.94L560.95 302.2L560.04 303.45L559.14 304.69L558.24 305.92L557.36 307.14L556.49 308.34L555.63 309.54L554.79 310.72L553.96 311.89L553.14 313.05L552.33 314.19L551.55 315.32L550.77 316.43L550.01 317.53L549.27 318.61L548.55 319.68L547.84 320.73L547.15 321.76L546.48 322.78L545.82 323.78L545.19 324.75L544.58 325.71L543.99 326.66L543.41 327.58L542.86 328.48L542.34 329.36L541.83 330.22L541.35 331.05L540.98 331.7L540.63 332.34L540.29 332.97L539.97 333.59L539.66 334.2L539.36 334.8L539.08 335.4L538.82 335.99L538.57 336.57L538.34 337.14L538.13 337.72L537.93 338.28L537.76 338.84L537.6 339.4L537.46 339.96L537.34 340.51L537.24 341.06L537.16 341.61L537.1 342.16L537.07 342.71L537.05 343.25L537.06 343.8L537.09 344.35L537.14 344.91L537.22 345.46L537.32 346.02L537.44 346.58L537.59 347.15L537.77 347.72L537.97 348.3L538.19 348.88L538.45 349.47L538.73 350.06L539.03 350.67L539.37 351.28L539.73 351.9L540.13 352.53L540.55 353.17L541 353.82L541.48 354.48L541.92 355.03L542.41 355.61L542.93 356.23L543.48 356.87L544.07 357.54L544.69 358.23L545.34 358.95L546.02 359.69L546.72 360.44L547.44 361.22L548.19 362.01L548.95 362.81L549.73 363.62L550.53 364.45L551.33 365.28L552.15 366.12L552.97 366.96L553.8 367.8L554.64 368.64L555.47 369.48L556.31 370.32L557.14 371.15L557.97 371.97L558.79 372.79L559.6 373.59L560.41 374.38L561.2 375.15L561.97 375.91L562.73 376.64L563.46 377.36L564.18 378.05L564.87 378.72L565.54 379.36L566.18 379.97L566.79 380.55L567.37 381.1L567.92 381.61L568.43 382.09L568.9 382.53L569.33 382.93L569.67 383.25L572.94 386.45L576.13 389.62L579.24 392.77L582.27 395.9L585.22 399L588.09 402.08L590.88 405.13L593.59 408.16L596.22 411.16L598.78 414.15L601.25 417.1L603.64 420.03L605.95 422.94L608.18 425.82L610.34 428.68L612.41 431.51L614.4 434.32L616.31 437.1L618.14 439.85L619.9 442.59L621.57 445.29L623.16 447.97L624.67 450.63L626.09 453.25L627.44 455.86L628.71 458.43L629.9 460.98L631 463.51L632.03 466.01L632.97 468.48L633.84 470.92L634.62 473.34L635.32 475.73L635.94 478.1L636.48 480.44L636.93 482.75L637.31 485.03L637.6 487.29L637.81 489.52L637.95 491.72L638.75 511.25L637.93 511.25L633.97 511.25L624.42 511.25L618.19 511.25L611.21 511.25L603.63 511.25L599.67 511.25L591.51 511.25L587.35 511.25L583.16 511.25L578.97 511.25L574.8 511.25L570.66 511.25L566.57 511.25L562.56 511.25L558.65 511.25L554.85 511.25L551.19 511.25L547.69 511.25L544.36 511.25L541.24 511.25L538.33 511.25L535.66 511.25L533.25 511.25L531.12 511.25L529.28 511.25L527.77 511.25L526.6 511.25L525.79 511.25L525.36 511.25L524.47 511.24L523.54 511.23L522.58 511.2L521.59 511.16L520.57 511.11L519.52 511.05L518.45 510.98L517.36 510.89L516.24 510.8L515.11 510.69L513.96 510.58L512.79 510.45L511.6 510.31L510.41 510.16L509.2 510L507.99 509.82L506.77 509.64L505.54 509.45L504.31 509.24L503.08 509.02L501.84 508.8L500.61 508.56L499.39 508.31L498.17 508.05L496.95 507.77L495.75 507.49L494.56 507.2L493.38 506.89L492.21 506.58L491.06 506.25L489.93 505.91L488.82 505.56L487.73 505.2L486.66 504.83L485.62 504.45L484.61 504.06L483.63 503.65L482.67 503.24L481.75 502.81L480.87 502.37L479.29 501.55L477.74 500.71L476.23 499.85L474.73 498.97L473.27 498.07L471.83 497.15L470.42 496.22L469.03 495.26L467.66 494.29L466.32 493.31L465 492.3L463.7 491.29L462.43 490.26L461.17 489.21L459.94 488.15L458.72 487.08L457.52 486L456.34 484.91L455.17 483.8L454.02 482.69L452.89 481.56L451.77 480.43L450.67 479.29L449.58 478.14L448.5 476.98L447.43 475.82L446.38 474.65L445.34 473.47L444.3 472.29L443.28 471.1L442.26 469.91L441.25 468.72L440.25 467.53L439.26 466.33L438.27 465.13L437.29 463.93L436.31 462.73L435.33 461.53L434.36 460.33L433.39 459.14L432.72 458.31L432.05 457.48L431.38 456.66L430.72 455.84L430.05 455.02L429.38 454.21L428.72 453.4L428.05 452.59L427.39 451.79L426.72 450.99L426.06 450.19L425.39 449.4L424.72 448.62L424.05 447.84L423.38 447.06L422.71 446.29L422.03 445.52L421.36 444.76L420.68 444L419.99 443.25L419.31 442.51L418.62 441.77L417.92 441.03L417.23 440.31L416.52 439.59L415.82 438.88L415.11 438.17L414.39 437.47L413.67 436.78L412.94 436.09L412.21 435.42L411.47 434.75L410.73 434.09L409.98 433.43L409.22 432.79L408.46 432.15L407.68 431.53L406.91 430.91L406.12 430.3L405.32 429.7L405.05 429.49L404.77 429.29L404.49 429.1L404.22 428.91L403.95 428.72L403.68 428.55L403.41 428.37L403.15 428.2L402.89 428.04L402.62 427.89L402.37 427.73L402.11 427.59L401.86 427.45L401.61 427.31L401.36 427.19L401.11 427.06L400.87 426.95L400.63 426.84L400.4 426.73L400.16 426.63L399.93 426.54L399.71 426.45L399.49 426.37L399.27 426.3L399.05 426.23L398.84 426.16L398.64 426.11L398.43 426.06L398.23 426.01L398.04 425.98L397.85 425.95L397.67 425.92L397.48 425.9L397.31 425.89L397.14 425.89L396.97 425.89L396.81 425.9L396.65 425.92L396.5 425.94L396.36 425.97L396.2 426.01L396.03 426.06L395.86 426.12L395.68 426.19L395.49 426.27L395.3 426.37L395.1 426.47L394.9 426.59L394.69 426.72L394.48 426.86L394.26 427.01L394.04 427.17L393.81 427.34L393.58 427.53L393.35 427.73L393.11 427.94L392.86 428.16L392.61 428.4L392.36 428.64L392.11 428.91L391.85 429.18L391.58 429.47L391.32 429.77L391.05 430.08L390.78 430.41L390.5 430.75L390.23 431.11L389.95 431.48L389.67 431.86L389.38 432.26L389.1 432.68L388.81 433.1L388.52 433.55L388.23 434L387.94 434.48L387.65 434.96L387.36 435.47L387.06 435.99L386.77 436.52L386.48 437.07L386.28 437.45L386.08 437.83L385.88 438.2L385.68 438.58L385.49 438.96L385.29 439.33L385.1 439.71L384.9 440.08L384.71 440.46L384.52 440.84L384.33 441.21L384.14 441.59L383.95 441.97L383.76 442.34L383.57 442.72L383.39 443.1L383.2 443.48L383.02 443.86L382.84 444.25L382.66 444.63L382.48 445.02L382.3 445.4L382.12 445.79L381.95 446.18L381.77 446.58L381.6 446.97L381.43 447.37L381.26 447.77L381.1 448.17L380.93 448.57L380.77 448.98L380.61 449.39L380.45 449.8L380.3 450.21L380.14 450.63L379.99 451.05L379.84 451.48L379.69 451.91L379.54 452.34L379.4 452.77L379.17 453.5L378.95 454.23L378.73 454.98L378.52 455.74L378.31 456.51L378.11 457.29L377.92 458.09L377.73 458.9L377.55 459.72L377.38 460.55L377.21 461.4L377.04 462.26L376.89 463.14L376.74 464.02L376.59 464.93L376.45 465.84L376.32 466.77L376.19 467.72L376.07 468.68L375.95 469.65L375.84 470.64L375.74 471.64L375.64 472.66L375.55 473.7L375.46 474.75L375.38 475.81L375.31 476.9L375.24 477.99L375.17 479.11L375.11 480.24L375.06 481.39L375.02 482.55L374.97 483.73L374.94 484.93L374.91 486.15L374.88 487.38L374.86 488.63L374.85 489.9L374.84 491.19L374.84 492.5L374.84 511.25L356.09 511.25L349.14 511.18L342.27 510.99L335.5 510.66L328.81 510.21L322.21 509.63L315.7 508.93L309.26 508.09L302.91 507.13L296.65 506.04L290.46 504.82L284.36 503.48L278.33 502.01L272.39 500.42L266.52 498.7L260.72 496.85L255 494.88L249.36 492.78L243.79 490.56L238.29 488.22L232.86 485.75L227.51 483.16L222.22 480.44L217 477.61L211.85 474.64L206.77 471.56L201.75 468.36L196.8 465.03L191.9 461.58L187.08 458.01L182.31 454.32L177.6 450.51L172.96 446.58L168.37 442.52L163.84 438.35L159.37 434.06L154.95 429.65L150.58 425.12L146.27 420.47L142.02 415.71L137.81 410.82L134.05 406.3L130.34 401.7L126.67 397L123.05 392.22L119.46 387.35L115.92 382.39L112.42 377.35L108.95 372.22L105.52 367L102.12 361.69L98.76 356.29L95.42 350.81L92.12 345.24L88.84 339.58L85.6 333.84L82.37 328L79.17 322.08L75.99 316.07L72.84 309.98L69.7 303.79L66.58 297.52L63.47 291.16L60.38 284.72L57.3 278.18L54.24 271.56L51.18 264.85L48.14 258.05L45.1 251.17L42.06 244.2L39.03 237.14L36 229.99L32.97 222.76L29.95 215.44L26.91 208.03L23.88 200.53L20.84 192.95L17.8 185.28L14.74 177.52L11.68 169.67L8.6 161.74L-1.25 136.25L151.02 136.25L151.38 137.23L151.73 138.13L152.05 138.97L152.35 139.76L152.63 140.49L152.89 141.17L153.14 141.81L153.38 142.41L153.6 142.98L153.82 143.53L154.02 144.05L154.22 144.55L154.42 145.04L154.61 145.52L154.8 146L154.99 146.49L155.19 146.98L155.38 147.48L155.59 148L155.8 148.55L156.02 149.12L156.25 149.73L156.49 150.37L156.75 151.06L157.02 151.8L157.31 152.59L157.62 153.44L157.96 154.35L158.31 155.33L158.69 156.39L159.1 157.52L159.54 158.74L160.01 160.04L160.5 161.44L161.04 162.94L161.6 164.55L162.21 166.26L162.85 168.09L163.54 170.03L164.26 172.1L164.92 173.99L165.6 175.9L166.28 177.85L166.97 179.82L167.68 181.83L168.4 183.86L169.13 185.92L169.87 188L170.62 190.11L171.38 192.24L172.15 194.39L172.94 196.56L173.73 198.75L174.53 200.96L175.35 203.18L176.17 205.41L177.01 207.66L177.85 209.92L178.7 212.19L179.56 214.47L180.43 216.75L181.31 219.04L182.2 221.34L183.1 223.64L184.01 225.94L184.92 228.24L185.84 230.54L186.77 232.84L187.71 235.14L188.66 237.43L189.61 239.71L190.58 241.99L191.55 244.26L192.52 246.52L193.51 248.76L194.5 250.99L195.5 253.21L196.5 255.42L197.51 257.6L198.53 259.77L199.99 262.81L201.41 265.72L202.8 268.5L204.17 271.15L205.5 273.68L206.79 276.08L208.06 278.37L209.29 280.54L210.49 282.59L211.66 284.54L212.8 286.37L213.9 288.11L214.97 289.74L216.01 291.28L217.01 292.72L217.98 294.07L218.92 295.33L219.82 296.5L220.69 297.59L221.52 298.6L222.32 299.54L223.09 300.4L223.82 301.19L224.51 301.91L225.17 302.56L225.8 303.16L226.39 303.69L226.94 304.17L227.46 304.6L227.95 304.98L228.4 305.31L228.81 305.59L229.18 305.84L229.52 306.04L229.83 306.22L230.09 306.36L230.32 306.47L230.52 306.55L230.67 306.62L230.79 306.66L230.84 306.63L230.91 306.57L231 306.49L231.12 306.38L231.26 306.24L231.43 306.08L231.61 305.88L231.82 305.64L232.04 305.37L232.28 305.07L232.54 304.72L232.81 304.33L233.1 303.9L233.4 303.42L233.71 302.9L234.04 302.32L234.37 301.7L234.71 301.02L235.06 300.29L235.41 299.5L235.78 298.65L236.14 297.74L236.51 296.77L236.88 295.73L237.25 294.63L237.62 293.46L237.99 292.22L238.36 290.91L238.72 289.52L239.08 288.06L239.43 286.52L239.78 284.91L240.11 283.21L240.44 281.42L240.76 279.55L241.07 277.6L241.36 275.56L241.64 273.42L241.91 271.19L242.16 268.87L242.32 267.21L242.47 265.55L242.61 263.87L242.73 262.19L242.85 260.51L242.95 258.82L243.04 257.13L243.12 255.43L243.19 253.74L243.25 252.05L243.3 250.35L243.34 248.67L243.37 246.98L243.39 245.3L243.4 243.63L243.4 241.97L243.4 240.31L243.38 238.67L243.35 237.03L243.32 235.41L243.28 233.81L243.23 232.21L243.17 230.64L243.11 229.08L243.03 227.54L242.96 226.02L242.87 224.52L242.78 223.04L242.68 221.59L242.57 220.16L242.46 218.75L242.35 217.38L242.22 216.03L242.1 214.71L241.96 213.42L241.83 212.16L241.69 210.93L241.54 209.74L241.39 208.59L241.24 207.47L241 205.81L240.75 204.22L240.5 202.69L240.25 201.23L239.99 199.82L239.73 198.48L239.46 197.19L239.18 195.96L238.9 194.79L238.6 193.67L238.3 192.59L237.99 191.57L237.66 190.6L237.33 189.67L236.98 188.79L236.62 187.95L236.25 187.15L235.86 186.39L235.46 185.67L235.04 184.98L234.61 184.33L234.16 183.72L233.69 183.13L233.2 182.58L232.7 182.05L232.18 181.55L231.63 181.08L231.07 180.62L230.49 180.19L229.88 179.79L229.25 179.39L228.6 179.02L227.92 178.66L227.22 178.32L226.49 177.99L225.74 177.66L224.96 177.35L224.15 177.04L223.32 176.74L222.45 176.45L191.68 166.09L216.03 144.61L216.59 144.13L217.19 143.63L217.82 143.14L218.49 142.65L219.2 142.15L219.95 141.66L220.74 141.17L221.58 140.68L222.47 140.2L223.42 139.72L224.42 139.24L225.47 138.77L226.59 138.31L227.77 137.85L229.02 137.4L230.33 136.96L231.72 136.53L233.18 136.11L234.72 135.71L236.33 135.31L238.03 134.93L239.81 134.56L241.68 134.21L243.64 133.87L245.69 133.55L247.84 133.25L250.09 132.96L252.43 132.7L254.88 132.45L257.43 132.22L260.1 132.02L262.87 131.84L265.76 131.68L268.76 131.54L271.88 131.43L275.13 131.35L278.5 131.29L282 131.25L285.62 131.25L289.38 131.27L293.73 131.33ZM280.04 168.77L278.16 168.8L276.3 168.83L274.46 168.88L272.64 168.93L270.85 168.99L269.09 169.07L269.49 169.85L269.88 170.64L270.26 171.43L270.63 172.23L270.99 173.03L271.34 173.83L271.68 174.64L272 175.45L272.32 176.27L272.62 177.09L272.92 177.91L273.21 178.73L273.48 179.55L273.75 180.38L274.01 181.21L274.26 182.05L274.51 182.88L274.74 183.72L274.97 184.55L275.19 185.39L275.4 186.23L275.61 187.07L275.81 187.92L276 188.76L276.18 189.6L276.36 190.45L276.54 191.29L276.7 192.13L276.87 192.98L277.03 193.82L277.18 194.67L277.33 195.51L277.47 196.35L277.61 197.19L277.74 198.03L277.88 198.87L278 199.71L278.13 200.55L278.25 201.38L278.37 202.21L278.51 203.24L278.65 204.31L278.79 205.42L278.93 206.57L279.06 207.76L279.2 208.98L279.33 210.23L279.45 211.52L279.58 212.85L279.7 214.2L279.81 215.59L279.92 217.01L280.03 218.45L280.13 219.92L280.23 221.42L280.32 222.95L280.4 224.5L280.48 226.08L280.56 227.67L280.62 229.29L280.69 230.93L280.74 232.59L280.78 234.27L280.82 235.97L280.85 237.68L280.87 239.41L280.89 241.15L280.89 242.91L280.89 244.68L280.87 246.46L280.85 248.25L280.81 250.05L280.77 251.86L280.72 253.68L280.65 255.5L280.57 257.33L280.49 259.16L280.39 261L280.28 262.84L280.15 264.68L279.98 266.99L279.79 269.27L279.58 271.52L279.36 273.73L279.12 275.9L278.87 278.04L278.6 280.14L278.31 282.2L278 284.23L277.68 286.23L277.34 288.19L276.99 290.11L276.62 292L276.23 293.86L275.82 295.68L275.4 297.46L274.96 299.21L274.51 300.93L274.03 302.61L273.54 304.26L273.04 305.88L272.51 307.46L271.97 309L271.41 310.52L270.84 312L270.24 313.44L269.63 314.86L269.01 316.23L268.36 317.58L267.7 318.9L267.02 320.18L266.32 321.42L265.61 322.64L264.88 323.82L264.13 324.97L263.36 326.09L262.58 327.18L261.77 328.23L260.96 329.25L260.12 330.24L259.52 330.92L258.91 331.58L258.3 332.22L257.68 332.85L257.05 333.46L256.41 334.05L255.76 334.63L255.1 335.19L254.44 335.74L253.77 336.27L253.09 336.78L252.41 337.27L251.72 337.75L251.02 338.21L250.31 338.66L249.6 339.09L248.88 339.5L248.15 339.89L247.42 340.27L246.68 340.63L245.93 340.97L245.18 341.3L244.42 341.61L243.65 341.9L242.88 342.17L242.1 342.43L241.32 342.67L240.53 342.89L239.73 343.09L238.93 343.28L238.13 343.45L237.32 343.6L236.5 343.74L235.68 343.85L234.85 343.95L234.02 344.03L233.19 344.09L232.35 344.14L231.5 344.17L230.65 344.17L228.95 344.14L227.26 344.02L225.58 343.84L223.9 343.57L222.24 343.23L220.59 342.81L218.94 342.31L217.31 341.74L215.68 341.08L214.05 340.35L212.44 339.54L210.83 338.65L209.22 337.67L207.62 336.62L206.02 335.48L204.43 334.27L202.85 332.97L201.26 331.59L199.68 330.12L198.1 328.57L196.52 326.94L194.95 325.22L193.37 323.42L191.8 321.53L190.23 319.56L188.65 317.5L187.08 315.35L185.5 313.12L183.92 310.8L182.34 308.39L180.76 305.89L179.17 303.3L177.59 300.63L175.99 297.86L174.4 295L172.79 292.06L171.19 289.02L169.57 285.89L167.95 282.66L166.33 279.35L165.19 276.99L164.07 274.61L162.95 272.22L161.85 269.81L160.75 267.38L159.66 264.94L158.58 262.49L157.51 260.03L156.45 257.57L155.4 255.09L154.36 252.61L153.33 250.12L152.3 247.63L151.29 245.14L150.29 242.65L149.3 240.16L148.32 237.67L147.35 235.19L146.39 232.71L145.44 230.24L144.5 227.78L143.58 225.33L142.66 222.89L141.75 220.46L140.86 218.04L139.98 215.65L139.11 213.27L138.25 210.9L137.4 208.56L136.57 206.24L135.74 203.94L134.93 201.66L134.13 199.42L133.34 197.19L132.57 195L131.81 192.84L131.06 190.7L130.32 188.61L129.59 186.54L128.88 184.51L128.78 184.22L128.68 183.94L128.58 183.65L128.48 183.37L128.28 182.8L128.18 182.52L128.08 182.24L127.98 181.95L127.89 181.67L127.79 181.4L127.69 181.12L127.59 180.84L127.5 180.57L127.4 180.29L127.3 180.02L127.21 179.74L127.11 179.47L127.02 179.2L126.92 178.93L126.83 178.66L126.73 178.39L126.64 178.12L126.54 177.86L126.45 177.59L126.36 177.33L126.26 177.06L126.17 176.8L126.08 176.54L125.99 176.28L125.9 176.02L125.81 175.77L125.71 175.51L125.62 175.25L125.53 175L125.44 174.75L125.35 174.49L125.27 174.24L125.18 173.99L125.09 173.74L124.69 173.74L124.07 173.74L123.24 173.74L122.22 173.74L121.02 173.74L119.64 173.74L118.11 173.74L116.42 173.74L114.6 173.74L112.66 173.74L110.6 173.74L108.43 173.74L106.18 173.74L103.85 173.74L101.45 173.74L99 173.74L96.5 173.74L93.97 173.74L91.42 173.74L88.85 173.74L78.75 173.74L76.32 173.74L73.94 173.74L71.64 173.74L69.43 173.74L67.3 173.74L65.29 173.74L63.39 173.74L61.62 173.74L60 173.74L58.52 173.74L57.22 173.74L56.09 173.74L55.14 173.74L54.4 173.74L53.86 173.74L53.55 173.74L56.24 180.49L58.93 187.18L61.6 193.8L64.28 200.34L66.95 206.81L69.61 213.2L72.28 219.53L74.95 225.78L77.61 231.95L80.28 238.06L82.95 244.09L85.63 250.04L88.31 255.92L91 261.73L93.69 267.47L96.39 273.13L99.11 278.72L101.83 284.23L104.56 289.67L107.31 295.04L110.07 300.33L112.84 305.55L115.63 310.69L118.44 315.75L121.26 320.75L124.1 325.67L126.96 330.51L129.85 335.28L132.75 339.97L135.68 344.59L138.63 349.13L141.61 353.6L144.61 357.99L147.64 362.31L150.7 366.55L153.79 370.71L156.91 374.8L160.05 378.81L163.24 382.75L166.45 386.61L169.94 390.67L173.47 394.63L177.03 398.49L180.62 402.25L184.24 405.91L187.9 409.47L191.6 412.93L195.34 416.29L199.11 419.55L202.92 422.71L206.76 425.78L210.65 428.74L214.57 431.61L218.54 434.38L222.55 437.06L226.6 439.64L230.69 442.12L234.82 444.5L239 446.79L243.22 448.98L247.49 451.08L251.8 453.09L256.16 454.99L260.57 456.81L265.02 458.53L269.52 460.15L274.07 461.69L278.67 463.13L283.32 464.47L288.02 465.73L292.77 466.89L297.58 467.96L302.43 468.94L307.34 469.82L312.31 470.62L317.33 471.32L322.4 471.94L327.53 472.46L332.72 472.89L337.96 473.24L338.03 472.3L338.1 471.38L338.18 470.46L338.26 469.55L338.34 468.65L338.43 467.75L338.52 466.87L338.61 465.99L338.71 465.11L338.82 464.25L338.92 463.39L339.03 462.54L339.15 461.7L339.27 460.86L339.39 460.03L339.51 459.21L339.64 458.4L339.78 457.59L339.91 456.78L340.06 455.99L340.2 455.19L340.35 454.41L340.5 453.63L340.66 452.86L340.82 452.09L340.99 451.33L341.16 450.57L341.33 449.82L341.51 449.07L341.69 448.33L341.88 447.6L342.07 446.86L342.26 446.14L342.46 445.42L342.66 444.7L342.87 443.99L343.08 443.28L343.3 442.57L343.52 441.87L343.74 441.18L343.96 440.52L344.18 439.87L344.4 439.22L344.62 438.58L344.85 437.95L345.08 437.33L345.31 436.72L345.54 436.11L345.77 435.51L346.01 434.91L346.24 434.32L346.48 433.74L346.72 433.17L346.96 432.6L347.2 432.03L347.45 431.48L347.69 430.93L347.93 430.38L348.18 429.84L348.42 429.31L348.67 428.78L348.92 428.26L349.16 427.74L349.41 427.22L349.66 426.72L349.9 426.21L350.15 425.71L350.4 425.22L350.64 424.73L350.89 424.24L351.13 423.76L351.38 423.28L351.62 422.81L351.86 422.34L352.11 421.87L352.35 421.41L352.59 420.95L352.82 420.5L353.06 420.04L353.3 419.59L354.13 418.05L354.98 416.55L355.84 415.1L356.7 413.71L357.58 412.36L358.46 411.06L359.35 409.81L360.24 408.6L361.14 407.44L362.05 406.33L362.96 405.26L363.87 404.23L364.78 403.24L365.7 402.3L366.62 401.39L367.54 400.53L368.46 399.7L369.37 398.91L370.29 398.16L371.21 397.44L372.12 396.76L373.03 396.12L373.94 395.5L374.84 394.92L375.74 394.37L376.63 393.86L377.51 393.37L378.39 392.91L379.26 392.48L380.12 392.08L380.97 391.7L381.81 391.36L382.64 391.03L383.46 390.73L384.27 390.45L385.07 390.2L385.85 389.96L386.62 389.75L387.38 389.56L388.12 389.38L388.31 389.34L388.51 389.3L388.71 389.26L388.91 389.21L389.11 389.17L389.31 389.13L389.51 389.1L389.72 389.06L389.93 389.02L390.14 388.98L390.35 388.95L390.56 388.91L390.77 388.88L390.99 388.85L391.2 388.81L391.42 388.78L391.64 388.75L391.86 388.72L392.09 388.7L392.31 388.67L392.53 388.64L392.76 388.62L392.99 388.6L393.22 388.57L393.45 388.55L393.68 388.53L393.92 388.51L394.15 388.5L394.39 388.48L394.63 388.47L394.87 388.45L395.11 388.44L395.35 388.43L395.59 388.42L395.84 388.41L396.08 388.41L396.33 388.4L396.58 388.4L396.83 388.39L397.08 388.39L397.72 388.4L398.36 388.41L399.01 388.44L399.67 388.47L400.33 388.52L401.01 388.58L401.69 388.65L402.38 388.73L403.08 388.82L403.78 388.93L404.49 389.05L405.21 389.18L405.93 389.32L406.66 389.48L407.4 389.66L408.15 389.85L408.9 390.05L409.66 390.27L410.42 390.5L411.19 390.75L411.97 391.02L412.75 391.3L413.54 391.6L414.33 391.92L415.13 392.26L415.94 392.61L416.75 392.98L417.56 393.37L418.39 393.78L419.21 394.21L420.04 394.66L420.88 395.13L421.72 395.61L422.57 396.12L423.42 396.65L424.28 397.21L425.14 397.78L426 398.38L426.87 398.99L427.74 399.63L428.81 400.44L429.87 401.26L430.92 402.09L431.95 402.92L432.96 403.75L433.97 404.6L434.96 405.45L435.93 406.31L436.9 407.17L437.85 408.04L438.79 408.91L439.72 409.79L440.64 410.67L441.55 411.56L442.44 412.46L443.33 413.35L444.21 414.25L445.08 415.16L445.94 416.07L446.79 416.98L447.63 417.89L448.46 418.81L449.29 419.73L450.11 420.65L450.92 421.58L451.73 422.5L452.53 423.43L453.32 424.36L454.11 425.29L454.9 426.22L455.68 427.15L456.45 428.09L457.22 429.02L457.99 429.95L458.75 430.88L459.51 431.82L460.27 432.75L461.02 433.68L461.78 434.61L462.53 435.54L463.38 436.59L464.23 437.63L465.07 438.67L465.91 439.7L466.75 440.72L467.58 441.73L468.41 442.74L469.24 443.73L470.06 444.72L470.89 445.69L471.71 446.66L472.54 447.61L473.36 448.55L474.19 449.49L475.01 450.41L475.85 451.32L476.68 452.22L477.52 453.1L478.36 453.98L479.2 454.84L480.05 455.69L480.91 456.52L481.77 457.34L482.64 458.15L483.51 458.94L484.4 459.72L485.29 460.49L486.19 461.24L487.1 461.97L488.02 462.69L488.95 463.39L489.89 464.08L490.84 464.75L491.81 465.4L492.78 466.04L493.78 466.66L494.78 467.26L495.8 467.85L496.83 468.41L497.88 468.96L498.24 469.13L498.63 469.3L499.06 469.48L499.53 469.65L500.03 469.82L500.57 470L501.13 470.17L501.73 470.34L502.35 470.52L503 470.69L503.67 470.86L504.36 471.02L505.07 471.19L505.8 471.35L506.55 471.51L507.32 471.67L508.09 471.82L508.88 471.97L509.68 472.11L510.49 472.26L511.31 472.39L512.12 472.52L512.95 472.65L513.77 472.77L514.6 472.89L515.42 473L516.24 473.1L517.05 473.2L517.86 473.29L518.66 473.37L519.44 473.45L520.22 473.52L520.98 473.58L521.73 473.63L522.46 473.67L523.17 473.7L523.86 473.73L524.53 473.74L525.17 473.75L525.79 473.75L525.82 473.75L525.88 473.74L525.97 473.74L526.09 473.74L594.5 473.74L593.98 472.68L593.42 471.6L592.84 470.5L592.23 469.36L591.58 468.2L590.91 467.02L590.2 465.81L589.46 464.57L588.68 463.3L587.87 462.01L587.02 460.7L586.14 459.35L585.22 457.98L584.26 456.58L583.27 455.16L582.23 453.7L581.16 452.22L580.04 450.72L578.89 449.18L577.69 447.62L576.44 446.03L575.16 444.41L573.83 442.76L572.45 441.08L571.03 439.38L569.57 437.65L568.05 435.88L566.49 434.09L564.88 432.28L563.22 430.43L561.5 428.55L559.74 426.64L557.93 424.71L556.06 422.74L554.14 420.74L552.17 418.72L550.14 416.66L548.05 414.58L545.91 412.46L543.72 410.32L543.38 410L542.99 409.64L542.54 409.22L542.05 408.75L541.5 408.23L540.91 407.67L540.27 407.07L539.6 406.42L538.89 405.74L538.14 405.02L537.36 404.26L536.54 403.48L535.7 402.66L534.84 401.82L533.95 400.95L533.04 400.05L532.11 399.14L531.17 398.21L530.22 397.26L529.26 396.3L528.29 395.32L527.31 394.34L526.33 393.35L525.36 392.35L524.38 391.35L523.41 390.35L522.45 389.35L521.5 388.35L520.57 387.36L519.65 386.38L518.74 385.41L517.86 384.45L517 383.5L516.17 382.58L515.37 381.67L514.6 380.78L513.86 379.92L513.16 379.08L512.49 378.27L511.87 377.49L511.65 377.2L510.59 375.77L509.59 374.33L508.63 372.88L507.71 371.42L506.84 369.95L506.02 368.48L505.25 366.99L504.52 365.49L503.84 363.99L503.21 362.47L502.63 360.95L502.1 359.41L501.62 357.87L501.19 356.31L500.81 354.75L500.48 353.17L500.2 351.59L499.97 350L499.79 348.4L499.67 346.78L499.6 345.16L499.58 343.53L499.62 341.89L499.7 340.24L499.85 338.58L500.05 336.91L500.3 335.23L500.61 333.54L500.97 331.84L501.39 330.13L501.87 328.41L502.4 326.68L502.99 324.94L503.64 323.19L504.35 321.43L505.11 319.67L505.93 317.89L506.82 316.1L507.76 314.3L508.76 312.5L509.33 311.51L509.91 310.51L510.51 309.5L511.14 308.47L511.78 307.43L512.44 306.38L513.11 305.31L513.81 304.22L514.52 303.13L515.24 302.02L515.99 300.89L516.75 299.75L517.52 298.6L518.32 297.43L519.12 296.25L519.95 295.06L520.78 293.86L521.64 292.64L522.5 291.41L523.38 290.17L524.27 288.91L525.18 287.64L526.1 286.36L527.03 285.07L527.97 283.77L528.93 282.45L529.9 281.12L530.88 279.79L531.87 278.43L532.87 277.07L533.88 275.7L534.9 274.31L535.93 272.92L536.98 271.51L538.03 270.1L539.09 268.67L540.15 267.23L541.23 265.78L542.32 264.32L543.41 262.85L544.68 261.14L545.99 259.39L547.32 257.59L548.68 255.76L550.07 253.9L551.47 252L552.9 250.08L554.35 248.12L555.81 246.14L557.28 244.13L558.77 242.1L560.26 240.05L561.76 237.98L563.26 235.9L564.77 233.8L566.28 231.68L567.78 229.56L569.28 227.43L570.78 225.29L572.26 223.15L573.73 221L575.19 218.86L576.64 216.72L578.07 214.58L579.47 212.44L580.86 210.32L582.22 208.2L583.55 206.1L584.85 204L586.13 201.93L587.37 199.87L588.57 197.83L589.74 195.82L590.86 193.83L591.95 191.86L592.99 189.92L593.98 188.02L594.92 186.14L595.82 184.3L596.66 182.49L595.98 182.49L595.09 182.49L594.01 182.49L592.75 182.49L591.3 182.49L589.69 182.49L587.92 182.48L586.01 182.48L583.96 182.48L581.78 182.48L579.48 182.48L577.07 182.47L574.56 182.47L571.97 182.47L569.29 182.47L566.55 182.46L563.74 182.46L560.89 182.46L557.99 182.46L555.06 182.45L552.11 182.45L549.15 182.45L546.19 182.45L543.23 182.45L540.29 182.45L537.38 182.44L534.51 182.44L531.68 182.44L528.91 182.44L526.2 182.44L523.57 182.44L521.02 182.44L518.57 182.44L516.22 182.44L513.99 182.44L511.88 182.44L509.91 182.44L508.07 182.45L506.4 182.45L504.88 182.45L504.25 184.09L503.59 185.77L502.91 187.49L502.2 189.25L501.47 191.04L500.72 192.88L499.94 194.74L499.14 196.64L498.32 198.57L497.47 200.53L496.61 202.51L495.72 204.53L494.82 206.57L493.9 208.63L492.95 210.71L491.99 212.82L491.01 214.94L490.02 217.08L489.01 219.24L487.98 221.42L486.94 223.6L485.88 225.8L484.81 228.01L483.72 230.23L482.62 232.45L481.51 234.68L480.39 236.92L479.25 239.16L478.1 241.39L476.95 243.63L475.78 245.87L474.61 248.11L473.42 250.34L472.23 252.56L471.03 254.78L469.82 256.99L468.61 259.18L467.39 261.37L466.17 263.54L464.94 265.7L461.14 272.21L457.43 278.35L453.81 284.13L450.29 289.55L446.85 294.63L443.5 299.38L440.24 303.81L437.08 307.93L434 311.75L431.01 315.28L428.11 318.54L425.29 321.53L422.57 324.27L419.94 326.77L417.39 329.03L414.93 331.08L412.56 332.91L410.28 334.55L408.08 336L405.98 337.27L403.96 338.38L402.02 339.33L400.18 340.15L398.42 340.83L396.75 341.39L395.16 341.84L393.66 342.19L392.25 342.45L390.92 342.64L389.68 342.76L388.52 342.83L387.45 342.86L386.47 342.85L385.57 342.82L384.75 342.79L384.02 342.75L383.38 342.73L382.82 342.73L382.34 342.77L381.95 342.85L369.84 339.13L369.82 339.12L369.79 339.1L369.74 339.08L369.68 339.05L369.6 339.01L369.51 338.96L369.4 338.91L369.28 338.85L369.15 338.78L369.01 338.7L368.85 338.62L368.68 338.53L368.51 338.43L368.32 338.33L368.12 338.22L367.91 338.1L367.69 337.98L367.46 337.84L367.23 337.7L366.99 337.56L366.74 337.4L366.48 337.24L366.21 337.08L365.94 336.9L365.66 336.72L365.38 336.53L365.09 336.34L364.8 336.14L364.5 335.93L364.2 335.71L363.9 335.49L363.59 335.26L363.29 335.02L362.97 334.78L362.66 334.53L362.35 334.28L362.03 334.01L361.72 333.74L361.4 333.47L361.09 333.18L359.35 331.51L357.72 329.75L356.17 327.89L354.72 325.96L353.36 323.94L352.09 321.84L350.9 319.66L349.79 317.41L348.77 315.08L347.82 312.69L346.94 310.22L346.14 307.69L345.41 305.1L344.74 302.44L344.14 299.73L343.61 296.96L343.13 294.14L342.71 291.27L342.34 288.35L342.03 285.38L341.76 282.37L341.54 279.32L341.37 276.23L341.24 273.1L341.15 269.94L341.1 266.75L341.08 263.53L341.09 260.28L341.14 257.01L341.21 253.72L341.3 250.4L341.42 247.08L341.56 243.73L341.71 240.38L341.88 237.01L342.06 233.64L342.26 230.27L342.45 226.89L342.66 223.52L342.86 220.14L342.95 218.74L343.03 217.35L343.12 215.95L343.2 214.55L343.28 213.15L343.36 211.76L343.44 210.37L343.52 208.98L343.6 207.6L343.67 206.23L343.74 204.86L343.81 203.5L343.88 202.15L343.94 200.8L343.99 199.47L344.05 198.16L344.1 196.85L344.14 195.56L344.18 194.28L344.21 193.02L344.24 191.77L344.27 190.55L344.28 189.34L344.29 188.15L344.3 186.98L344.29 185.83L344.28 184.7L344.27 183.6L344.24 182.52L344.21 181.47L344.17 180.44L344.12 179.44L344.06 178.47L343.99 177.52L343.91 176.61L343.82 175.72L343.73 174.87L343.62 174.05L343.5 173.27L343.37 172.51L341.87 172.3L340.32 172.1L338.74 171.9L337.11 171.7L335.46 171.51L333.77 171.32L332.04 171.14L330.29 170.97L328.51 170.8L326.7 170.63L324.87 170.47L323.01 170.32L321.13 170.17L319.24 170.03L317.32 169.9L315.39 169.77L313.45 169.65L311.49 169.54L309.53 169.43L307.55 169.33L305.57 169.24L303.59 169.16L301.6 169.08L299.61 169.01L297.62 168.95L295.63 168.89L293.65 168.85L291.67 168.81L289.7 168.78L287.75 168.76L285.8 168.75L283.86 168.75L281.95 168.76L280.04 168.77Z" id="ab0z5rrDuh"></path></defs><g><g><g><use xlink:href="#ab0z5rrDuh" opacity="1" fill="#fe5c5d" fill-opacity="1"></use><g><use xlink:href="#ab0z5rrDuh" opacity="1" fill-opacity="0" stroke="#000000" stroke-width="1" stroke-opacity="0"></use></g></g></g></g></svg>